<?xml version="1.0" encoding="UTF-8" standalone="no"?>
<!DOCTYPE svg PUBLIC "-//W3C//DTD SVG 1.1//EN"
"http://www.w3.org/Graphics/SVG/1.1/DTD/svg11.dtd">


<!-- Page 1 -->
<svg x="0" y="0" width="638" height="661" viewBox="0 0 638 661" version="1.1" xmlns="http://www.w3.org/2000/svg" xmlns:xlink="http://www.w3.org/1999/xlink"
style="display: block;margin-left: auto;margin-right: auto;">
<defs>
<clipPath id="c0_1"><path d="M-48.8,728.8v-909H1163.6v909Z" /></clipPath>

<style type="text/css"><![CDATA[
text { white-space: pre; }
path, image { pointer-events: none; }
text::-moz-selection {
	color: transparent;
	background: rgba(0, 106, 173, 0.4);
}
text::selection {
	color: transparent;
	background: rgba(0, 106, 173, 0.4);
}

.s1_1{
font-size: 27.50px;
font-family: LiberationSans_8;
fill: TRANSPARENT;
}

.g0_1{
fill: #DDDDDD;
}
.g1_1{
fill: none;
stroke: #000000;
stroke-width: 2.2050416;
stroke-linecap: butt;
stroke-linejoin: round;
}
.g2_1{
}
.g3_1{
fill: #E6E6FF;
}
.g4_1{
fill: #FFFFFF;
}
.g5_1{
fill: none;
stroke: #FF6600;
stroke-width: 2.2050416;
stroke-linecap: butt;
stroke-linejoin: round;
}
.g6_1{
fill: none;
stroke: #FF33FF;
stroke-width: 2.2050416;
stroke-linecap: butt;
stroke-linejoin: round;
}
.g7_1{
fill: none;
stroke: #CC66FF;
stroke-width: 2.2050416;
stroke-linecap: butt;
stroke-linejoin: round;
}
.g8_1{
fill: none;
stroke: #CC9900;
stroke-width: 2.2050416;
stroke-linecap: butt;
stroke-linejoin: round;
}
.g9_1{
fill: #FFCC99;
}
.g10_1{
fill: none;
stroke: #CCCCCC;
stroke-width: 0.15277778;
stroke-linecap: butt;
stroke-linejoin: round;
}

]]></style>

</defs>
<path d="M0,0
L0,661
L638,661
L638,0 Z " 
fill="#FFFFFF" stroke="none" />
<path fill-rule="evenodd" d="M163.3,545.7H344.8l-60.5,59.5H102.8l60.5,-59.5Z" class="g0_1" />
<path d="M163.3,545.7H344.8l-60.5,59.5H102.8l60.5,-59.5Zm-60.5,0v0Zm242,59.5v0ZM226.4,539.6V508.3" class="g1_1" />
<path fill-rule="evenodd" d="M226.4,495.6l-4.3,13.3h8.7l-4.4,-13.3Z" class="g2_1" />
<path fill-rule="evenodd" d="M178.3,442.8H326.8L277.3,489H128.8l49.5,-46.2Z" class="g3_1" />
<path d="M178.3,442.8H326.8L277.3,489H128.8l49.5,-46.2Zm-49.5,0v0Zm198,46.2v0ZM98.2,90.4c0,-7,10.6,-14,21,-14h84.5c10.5,0,21,-7.2,21,-14.2c0,7,10.6,14.2,21.1,14.2h84.4c10.5,0,21,7,21,14m-253,0v0Zm253,-28.2v0Z" class="g1_1" />
<path fill-rule="evenodd" d="M199.7,18.5h82.5L254.7,44.9H172.2L199.7,18.5Z" class="g3_1" />
<path d="M199.7,18.5h82.5L254.7,44.9H172.2L199.7,18.5Zm-27.5,0v0Zm110,26.4v0Z" class="g1_1" />
<g clip-path="url(#c0_1)">
<g fill="#000000" >
<use xlink:href="#f0_2" transform="matrix(18,0,0,18,187.2,640)" />
<use xlink:href="#f0_3" transform="matrix(18,0,0,18,194.9,640)" />
<use xlink:href="#f0_4" transform="matrix(18,0,0,18,217.8,640)" />
<use xlink:href="#f0_5" transform="matrix(18,0,0,18,232.9,640)" />
<use xlink:href="#f0_6" transform="matrix(18,0,0,18,248.2,640)" />
</g>
</g>
<text x="187" y="639" dx="0,0.1,0,-0.2,0" class="s1_1">Image</text>
<path d="M98.2,218c0,7.2,10.6,14.2,21.1,14.2h84.4c10.5,0,21,7.1,21,14.2c0,-7.1,10.6,-14.2,21.1,-14.2h84.4c10.5,0,21,-7,21,-14.2m-253,0v0Zm253,28.4v0Z" class="g1_1" />
<path fill-rule="evenodd" d="M39.4,113.7h82.7L94.4,140.1H11.9L39.4,113.7Z" class="g3_1" />
<path d="M39.4,113.7h82.7L94.4,140.1H11.9L39.4,113.7Zm-27.5,0v0Zm110.2,26.4v0Z" class="g1_1" />
<path fill-rule="evenodd" d="M152.2,113.7h82.5l-27.5,26.5H124.7l27.5,-26.5Z" class="g3_1" />
<path d="M152.2,113.7h82.5l-27.5,26.5H124.7l27.5,-26.5Zm-27.5,0v0Zm110,26.5v0Z" class="g1_1" />
<path fill-rule="evenodd" d="M264.8,113.8h82.5l-27.5,26.4H237.3l27.5,-26.4Z" class="g3_1" />
<path d="M264.8,113.8h82.5l-27.5,26.4H237.3l27.5,-26.4Zm-27.5,0v0Zm110,26.4v0Z" class="g1_1" />
<path fill-rule="evenodd" d="M377.4,113.8h82.5l-27.5,26.4H349.9l27.5,-26.4Z" class="g3_1" />
<path d="M377.4,113.8h82.5l-27.5,26.4H349.9l27.5,-26.4Zm-27.5,0v0Zm110,26.4v0Z" class="g1_1" />
<path fill-rule="evenodd" d="M61.1,124.2H77.6l-5.5,5.5H55.6l5.5,-5.5Z" class="g4_1" />
<path d="M61.1,124.2H77.6l-5.5,5.5H55.6l5.5,-5.5Zm-5.5,0v0Zm22,5.5v0Z" class="g5_1" />
<path fill-rule="evenodd" d="M172.8,121.8h24.7l-8.2,8.7H164.5l8.3,-8.7Z" class="g4_1" />
<path d="M172.8,121.8h24.7l-8.2,8.7H164.5l8.3,-8.7Zm-8.3,0v0Zm33,8.7v0Z" class="g6_1" />
<path fill-rule="evenodd" d="M279,121.8h33l-11,11H268l11,-11Z" class="g4_1" />
<path d="M279,121.8h33l-11,11H268l11,-11Zm-11,0v0Zm44,11v0Z" class="g7_1" />
<path fill-rule="evenodd" d="M391.6,119.5H433l-13.8,14.3H378l13.6,-14.3Z" class="g4_1" />
<path d="M391.6,119.5H433l-13.8,14.3H378l13.6,-14.3Zm-13.6,0v0Zm55,14.3v0Z" class="g8_1" />
<g clip-path="url(#c0_1)">
<g fill="#000000" >
<use xlink:href="#f0_7" transform="matrix(18,0,0,18,75.3,189.6)" />
<use xlink:href="#f0_8" transform="matrix(18,0,0,18,93.6,189.6)" />
<use xlink:href="#f0_4" transform="matrix(18,0,0,18,108.9,189.6)" />
<use xlink:href="#f0_9" transform="matrix(18,0,0,18,124,189.6)" />
<use xlink:href="#f0_a" transform="matrix(18,0,0,18,131.8,189.6)" />
<use xlink:href="#f0_4" transform="matrix(18,0,0,18,137.9,189.6)" />
<use xlink:href="#f0_b" transform="matrix(18,0,0,18,153,189.6)" />
<use xlink:href="#f0_d" transform="matrix(18,0,0,18,166.8,189.6)" />
<use xlink:href="#f0_e" transform="matrix(18,0,0,18,185.1,189.6)" />
<use xlink:href="#f0_f" transform="matrix(18,0,0,18,198.8,189.6)" />
<use xlink:href="#f0_4" transform="matrix(18,0,0,18,208,189.6)" />
<use xlink:href="#f0_3" transform="matrix(18,0,0,18,223.3,189.6)" />
<use xlink:href="#f0_a" transform="matrix(18,0,0,18,246.2,189.6)" />
<use xlink:href="#f0_g" transform="matrix(18,0,0,18,252.1,189.6)" />
<use xlink:href="#f0_d" transform="matrix(18,0,0,18,275.1,189.6)" />
<use xlink:href="#f0_h" transform="matrix(18,0,0,18,293.4,189.6)" />
<use xlink:href="#f0_h" transform="matrix(18,0,0,18,308.7,189.6)" />
<use xlink:href="#f0_b" transform="matrix(18,0,0,18,323.8,189.6)" />
<use xlink:href="#f0_a" transform="matrix(18,0,0,18,329.9,189.6)" />
<use xlink:href="#f0_i" transform="matrix(18,0,0,18,336,189.6)" />
<use xlink:href="#f0_5" transform="matrix(18,0,0,18,351.1,189.6)" />
</g>
</g>
<text x="75" y="189" dx="0,0,0,-0.2,0.1,0,-0.2,0,0,0,0,0,0,0,-0.1,0,0,0,0,-0.2,0,0,-0.2" class="s1_1">Spatial Pyramid Pooling</text>
<path d="M226.6,435.7V404.3" class="g1_1" />
<path fill-rule="evenodd" d="M226.6,391.7l-4.5,13.2h8.7l-4.2,-13.2Z" class="g2_1" />
<path fill-rule="evenodd" d="M189,347.4H304.5L266,382.7H150.5L189,347.4Z" class="g3_1" />
<path d="M189,347.4H304.5L266,382.7H150.5L189,347.4Zm-38.5,0v0Zm154,35.3v0ZM226.6,340.4V309.1" class="g1_1" />
<path fill-rule="evenodd" d="M226.6,296.4l-4.5,13.3H231l-4.4,-13.3Z" class="g2_1" />
<path fill-rule="evenodd" d="M199.7,259.7h82.5l-27.5,26.5H172.2l27.5,-26.5Z" class="g3_1" />
<path d="M199.7,259.7h82.5l-27.5,26.5H172.2l27.5,-26.5Zm-27.5,0v0Zm110,26.5v0Z" class="g1_1" />
<g clip-path="url(#c0_1)">
<g fill="#000000" >
<use xlink:href="#f0_j" transform="matrix(18,0,0,18,238.6,531.1)" />
<use xlink:href="#f0_k" transform="matrix(18,0,0,18,253.9,531.1)" />
<use xlink:href="#f0_l" transform="matrix(18,0,0,18,261.5,531.1)" />
<use xlink:href="#f0_m" transform="matrix(18,0,0,18,276.8,531.1)" />
<use xlink:href="#f0_j" transform="matrix(18,0,0,18,238.6,427.2)" />
</g>
</g>
<text x="238" y="531" class="s1_1">0.5x</text>
<g clip-path="url(#c0_1)">
<g fill="#000000" >
<use xlink:href="#f0_k" transform="matrix(18,0,0,18,253.9,427.2)" />
<use xlink:href="#f0_l" transform="matrix(18,0,0,18,261.5,427.2)" />
<use xlink:href="#f0_m" transform="matrix(18,0,0,18,276.8,427.2)" />
<use xlink:href="#f0_j" transform="matrix(18,0,0,18,238.6,332)" />
</g>
</g>
<text x="238" y="427" class="s1_1">0.5x</text>
<g clip-path="url(#c0_1)">
<g fill="#000000" >
<use xlink:href="#f0_k" transform="matrix(18,0,0,18,253.9,332)" />
<use xlink:href="#f0_l" transform="matrix(18,0,0,18,261.5,332)" />
<use xlink:href="#f0_m" transform="matrix(18,0,0,18,276.8,332)" />
</g>
</g>
<text x="238" y="331" class="s1_1">0.5x</text>
<path fill-rule="evenodd" d="M447.9,555H629.4l-60.5,59.5H387.4L447.9,555Z" class="g9_1" />
<path d="M447.9,555H629.4l-60.5,59.5H387.4L447.9,555Zm-60.5,0v0Zm242,59.5v0Z" class="g1_1" />
<g clip-path="url(#c0_1)">
<g fill="#000000" >
<use xlink:href="#f0_d" transform="matrix(18,0,0,18,450.2,648.5)" />
<use xlink:href="#f0_f" transform="matrix(18,0,0,18,468.6,648.5)" />
<use xlink:href="#f0_6" transform="matrix(18,0,0,18,477.7,648.5)" />
<use xlink:href="#f0_g" transform="matrix(18,0,0,18,492.8,648.5)" />
<use xlink:href="#f0_a" transform="matrix(18,0,0,18,508.1,648.5)" />
<use xlink:href="#f0_n" transform="matrix(18,0,0,18,514.1,648.5)" />
<use xlink:href="#f0_9" transform="matrix(18,0,0,18,527.8,648.5)" />
<use xlink:href="#f0_a" transform="matrix(18,0,0,18,535.6,648.5)" />
<use xlink:href="#f0_h" transform="matrix(18,0,0,18,541.6,648.5)" />
<use xlink:href="#f0_i" transform="matrix(18,0,0,18,556.9,648.5)" />
</g>
</g>
<text x="450" y="648" dx="0,0,0,-0.2,0,-0.1,0,0.1,-0.1,0" class="s1_1">Prediction</text>
<path d="M303.1,29.5H433.6" class="g1_1" />
<path fill-rule="evenodd" d="M446.1,29.5L433,25.1v8.7l13.1,-4.3Z" class="g2_1" />
<path fill-rule="evenodd" d="M481.3,14.1h82.5L536.3,40.6H453.8L481.3,14.1Z" class="g3_1" />
<path d="M481.3,14.1h82.5L536.3,40.6H453.8L481.3,14.1Zm-27.5,0v0Zm110,26.5v0ZM508.4,50.7V537.5" class="g1_1" />
<path fill-rule="evenodd" d="M508.4,550l4.5,-13.1h-8.7l4.2,13.1Z" class="g2_1" />
<g clip-path="url(#c0_1)">
<g fill="#000000" >
<use xlink:href="#f0_o" transform="matrix(18,0,0,18,520.8,332)" />
<use xlink:href="#f0_m" transform="matrix(18,0,0,18,535.9,332)" />
</g>
</g>
<text x="520" y="331" dx="0,-0.2" class="s1_1">8x</text>
<path d="M319,660H.5V0H637.4V660H319Z" class="g10_1" />

<defs>
<path d="M141,0V1051H284V0Z" 
id="f0_2"
transform="scale(0.001,-0.001)" />

<path d="M106,0V635c0,0,0,26,-1,54c0,0,0,28,-1,53c0,0,-1,25,-1,42c0,0,-1,18,-2,24H228c0,0,1,-4,2,-21c0,0,1,-16,2,-37c0,0,1,-22,2,-44c0,0,0,-22,0,-37h3c0,0,17,35,38,64c0,0,21,28,49,48c0,0,28,20,64,30c0,0,37,11,84,11c0,0,92,0,146,-36c0,0,53,-37,74,-117h2c0,0,18,35,40,64c0,0,23,28,53,48c0,0,29,20,67,30c0,0,37,11,85,11c0,0,61,0,105,-16c0,0,45,-17,73,-51c0,0,28,-34,42,-88c0,0,13,-54,13,-129V0H1039V512c0,0,0,59,-7,98c0,0,-8,40,-25,64c0,0,-18,25,-46,35c0,0,-28,10,-69,10c0,0,-43,0,-77,-16c0,0,-34,-16,-59,-48c0,0,-24,-31,-37,-78c0,0,-13,-47,-13,-109V0H573V512c0,0,0,59,-7,98c0,0,-8,40,-25,64c0,0,-18,25,-46,35c0,0,-29,10,-70,10c0,0,-42,0,-77,-17c0,0,-34,-17,-58,-49c0,0,-24,-31,-37,-78c0,0,-13,-47,-13,-107V0Z" 
id="f0_3"
transform="scale(0.001,-0.001)" />

<path d="M339,87c0,0,64,0,112,23c0,0,49,24,80,60c0,0,32,37,48,80c0,0,15,43,15,83v66L447,396c0,0,-49,-1,-93,-7c0,0,-45,-6,-78,-25c0,0,-34,-19,-54,-52c0,0,-20,-34,-20,-88c0,0,0,-65,36,-101c0,0,35,-36,101,-36ZM309,-14c0,0,-122,0,-183,64c0,0,-61,64,-61,176c0,0,0,79,30,131c0,0,30,51,79,80c0,0,49,29,111,40c0,0,63,11,128,13l181,3v44c0,0,0,50,-10,85c0,0,-10,35,-32,57c0,0,-22,21,-54,32c0,0,-32,10,-76,10c0,0,-39,0,-70,-6c0,0,-32,-6,-55,-20c0,0,-23,-15,-37,-40c0,0,-14,-25,-18,-63L101,604c0,0,7,48,28,88c0,0,21,40,59,69c0,0,39,29,97,45c0,0,57,16,139,16c0,0,153,0,230,-70c0,0,76,-69,76,-202V202c0,0,0,-59,16,-90c0,0,16,-30,60,-30c0,0,11,0,22,2c0,0,11,1,22,3V4c0,0,-26,-5,-51,-8c0,0,-25,-3,-53,-3c0,0,-38,0,-65,9c0,0,-28,11,-45,31c0,0,-17,21,-26,51c0,0,-9,31,-11,72h-5c0,0,-21,-39,-47,-71c0,0,-26,-31,-60,-54C487,31,453,9,409,-2c0,0,-44,-12,-100,-12Z" 
id="f0_4"
transform="scale(0.001,-0.001)" />

<path d="M398,93c0,0,40,0,78,17c0,0,39,17,69,55c0,0,31,37,49,96c0,0,19,59,19,142c0,0,0,85,-18,145c0,0,-18,60,-48,98c0,0,-30,38,-68,56c0,0,-39,18,-79,18c0,0,-51,0,-88,-18c0,0,-37,-18,-61,-57c0,0,-25,-38,-36,-98c0,0,-12,-60,-12,-144c0,0,0,-87,12,-146c0,0,11,-60,35,-96c0,0,24,-37,61,-52c0,0,36,-16,87,-16Zm11,-409c0,0,-69,0,-123,14c0,0,-54,15,-92,41c0,0,-38,27,-62,63c0,0,-24,37,-34,81l134,20c0,0,13,-56,59,-87c0,0,46,-30,121,-30c0,0,46,0,83,13c0,0,37,12,63,40c0,0,27,28,41,73c0,0,14,45,14,108V150h-1c0,0,-15,-31,-37,-59c0,0,-22,-28,-54,-49C521,42,489,20,448,7C448,7,406,-5,352,-5c0,0,-77,0,-131,25c0,0,-55,26,-90,77c0,0,-34,51,-50,128c0,0,-16,76,-16,177c0,0,0,97,16,174c0,0,16,78,52,132c0,0,36,54,94,83c0,0,57,28,140,28c0,0,86,0,149,-39c0,0,63,-39,97,-111h2c0,0,0,19,1,42c0,0,1,23,2,44c0,0,1,20,3,35c0,0,1,15,3,18H751c0,0,0,-7,-1,-23c0,0,-1,-16,-1,-39c0,0,-1,-22,-2,-49c0,0,0,-27,0,-56V23c0,0,0,-168,-83,-253c0,0,-83,-86,-255,-86Z" 
id="f0_5"
transform="scale(0.001,-0.001)" />

<path d="M643,479c0,0,-11,128,-65,186c0,0,-53,59,-154,59c0,0,-34,0,-71,-11c0,0,-37,-11,-68,-39c0,0,-32,-27,-54,-75c0,0,-21,-47,-24,-120ZM431,-14c0,0,-179,0,-273,106c0,0,-93,107,-93,317c0,0,0,113,28,192c0,0,28,79,78,128c0,0,49,49,115,71c0,0,65,22,140,22c0,0,102,0,170,-32c0,0,68,-33,110,-91c0,0,41,-58,59,-136c0,0,17,-78,17,-169V376H205c0,0,0,-63,13,-116c0,0,13,-54,41,-92c0,0,27,-38,70,-60c0,0,42,-21,102,-21c0,0,87,0,140,35c0,0,53,35,71,89L761,177c0,0,-13,-33,-36,-67c0,0,-23,-35,-61,-62C664,48,626,21,569,3c0,0,-57,-17,-138,-17Z" 
id="f0_6"
transform="scale(0.001,-0.001)" />

<path d="M515,-14c0,0,-197,0,-306,68C209,54,99,123,69,252l138,28c0,0,11,-41,32,-74c0,0,22,-34,59,-58c0,0,37,-24,91,-38c0,0,55,-13,131,-13c0,0,63,0,116,11c0,0,53,10,91,33c0,0,38,22,60,57c0,0,21,36,21,85c0,0,0,51,-24,83c0,0,-23,33,-66,53c0,0,-42,21,-101,35c0,0,-59,15,-131,31c0,0,-44,10,-88,21c0,0,-45,12,-85,28c0,0,-41,16,-77,38c0,0,-36,21,-62,51c0,0,-26,31,-41,70c0,0,-15,40,-15,93c0,0,0,74,31,127c0,0,30,54,83,88c0,0,54,34,127,50c0,0,73,16,158,16c0,0,98,0,168,-16c0,0,69,-15,117,-45c0,0,47,-31,76,-76c0,0,29,-45,46,-105L784,800c0,0,-10,38,-30,68c0,0,-20,30,-52,50c0,0,-32,20,-78,31c0,0,-46,10,-108,10c0,0,-73,0,-123,-13c0,0,-49,-13,-79,-35c0,0,-31,-23,-44,-53c0,0,-13,-30,-13,-65c0,0,0,-47,24,-77c0,0,23,-30,63,-50c0,0,41,-21,94,-34c0,0,53,-13,112,-27c0,0,49,-11,97,-23c0,0,48,-11,92,-27c0,0,44,-16,82,-38c0,0,39,-22,67,-53c0,0,29,-31,45,-74c0,0,16,-42,16,-100c0,0,0,-66,-26,-122c0,0,-26,-56,-80,-97C843,71,790,31,708,8c0,0,-82,-22,-193,-22Z" 
id="f0_7"
transform="scale(0.001,-0.001)" />

<path d="M452,84c0,0,56,0,93,22c0,0,37,21,59,63c0,0,22,41,31,100c0,0,9,60,9,136c0,0,0,74,-9,133c0,0,-9,58,-31,98c0,0,-22,41,-58,62c0,0,-37,21,-92,21c0,0,-45,0,-84,-13c0,0,-40,-13,-70,-49c0,0,-29,-35,-46,-99c0,0,-17,-63,-17,-164c0,0,0,-86,14,-145c0,0,14,-60,41,-96c0,0,28,-37,68,-53c0,0,40,-16,92,-16ZM103,-316V643c0,0,0,29,-1,56c0,0,0,27,-1,49c0,0,-1,22,-1,37c0,0,-1,16,-2,23H228c0,0,0,-3,2,-16c0,0,1,-13,2,-32c0,0,1,-19,2,-41c0,0,1,-21,1,-41h3c0,0,19,39,43,66c0,0,24,28,54,45c0,0,31,18,68,25c0,0,38,8,85,8c0,0,84,0,141,-30c0,0,57,-29,92,-84c0,0,34,-54,49,-130c0,0,15,-77,15,-170c0,0,0,-92,-15,-170c0,0,-15,-77,-49,-133c0,0,-35,-56,-92,-88c0,0,-57,-31,-141,-31c0,0,-86,0,-151,32c0,0,-65,33,-100,107h-3c0,0,0,-1,1,-13c0,0,0,-12,1,-30c0,0,0,-18,0,-40c0,0,1,-22,1,-43V-316Z" 
id="f0_8"
transform="scale(0.001,-0.001)" />

<path d="M277,-11c0,0,-161,0,-161,182V710H23v98h99l39,181h89V808H400V710H250V200c0,0,0,-58,19,-82c0,0,19,-23,66,-23c0,0,20,0,38,3c0,0,18,3,40,7V6c0,0,-31,-7,-63,-12c0,0,-31,-5,-73,-5Z" 
id="f0_9"
transform="scale(0.001,-0.001)" />

<path d="M103,0V808H237V0Zm0,979v128H237V979Z" 
id="f0_a"
transform="scale(0.001,-0.001)" />

<path d="M103,0V1107H237V0Z" 
id="f0_b"
transform="scale(0.001,-0.001)" />

<path d="M556,522c0,0,124,0,181,55c0,0,58,54,58,156c0,0,0,100,-61,152c0,0,-61,52,-183,52H268V522ZM125,0V1051H567c0,0,94,0,163,-23c0,0,69,-22,115,-64c0,0,47,-41,70,-100c0,0,23,-58,23,-129c0,0,0,-69,-23,-128c0,0,-23,-59,-68,-103c0,0,-45,-44,-113,-69c0,0,-67,-25,-158,-25H268V0Z" 
id="f0_d"
transform="scale(0.001,-0.001)" />

<path d="M142,-316c0,0,-25,0,-47,2c0,0,-21,1,-45,6v101c0,0,14,-2,32,-3c0,0,18,-1,31,-1c0,0,58,0,109,44c0,0,51,44,89,140L324,4L4,808H147L317,362c0,0,7,-21,19,-54c0,0,12,-34,23,-67c0,0,12,-34,21,-61c0,0,9,-27,10,-33c0,0,2,8,11,32c0,0,9,24,19,54c0,0,11,30,22,61c0,0,12,30,19,53L619,808H761L451,0c0,0,-29,-72,-58,-130c0,0,-30,-59,-66,-100c0,0,-37,-42,-82,-64c0,0,-44,-22,-103,-22Z" 
id="f0_e"
transform="scale(0.001,-0.001)" />

<path d="M106,0V620c0,0,0,25,-1,51c0,0,0,27,-1,52c0,0,-1,24,-1,46c0,0,-1,21,-2,39H228c0,0,0,-18,1,-40c0,0,2,-22,3,-45c0,0,1,-23,1,-44c0,0,1,-22,1,-36h3c0,0,14,46,30,80c0,0,16,34,38,56c0,0,21,22,51,32c0,0,30,11,72,11c0,0,17,0,32,-2c0,0,15,-3,23,-5V692c0,0,-13,3,-31,5c0,0,-18,2,-41,2c0,0,-46,0,-78,-21c0,0,-33,-21,-53,-58c0,0,-21,-37,-31,-88c0,0,-9,-51,-9,-111V0Z" 
id="f0_f"
transform="scale(0.001,-0.001)" />

<path d="M395,89c0,0,53,0,94,17c0,0,40,17,68,56c0,0,27,38,41,100c0,0,14,62,14,152c0,0,0,86,-14,145c0,0,-14,59,-42,96c0,0,-27,36,-67,53c0,0,-40,16,-92,16c0,0,-49,0,-85,-18c0,0,-36,-17,-60,-55c0,0,-24,-38,-35,-99c0,0,-12,-61,-12,-147c0,0,0,-84,11,-144c0,0,10,-59,33,-98c0,0,23,-38,59,-56c0,0,36,-18,87,-18ZM361,-14c0,0,-153,0,-225,102c0,0,-71,103,-71,312c0,0,0,422,296,422c0,0,92,0,153,-33c0,0,61,-34,98,-106h2c0,0,0,7,-1,23c0,0,0,16,-1,33c0,0,0,18,0,34c0,0,0,15,0,22v312H746V166c0,0,0,-29,0,-56c0,0,1,-26,2,-49c0,0,0,-22,1,-38c0,0,1,-16,2,-23H622c0,0,-1,7,-2,21c0,0,-1,14,-2,32c0,0,-1,18,-2,38c0,0,-1,20,-1,39h-3c0,0,-37,-78,-99,-111c0,0,-61,-33,-152,-33Z" 
id="f0_g"
transform="scale(0.001,-0.001)" />

<path d="M420,84c0,0,51,0,93,15c0,0,42,14,71,51c0,0,29,36,45,98c0,0,15,62,15,157c0,0,0,94,-14,155c0,0,-15,61,-43,98c0,0,-28,36,-68,51c0,0,-40,15,-91,15c0,0,-51,0,-93,-16c0,0,-41,-15,-70,-52c0,0,-29,-37,-44,-98c0,0,-16,-62,-16,-153c0,0,0,-95,17,-156c0,0,16,-62,45,-98c0,0,29,-37,68,-52c0,0,39,-15,85,-15Zm1,-98c0,0,-84,0,-150,25c0,0,-66,25,-112,77c0,0,-46,52,-70,131c0,0,-24,79,-24,186c0,0,0,417,361,417c0,0,94,0,162,-26c0,0,68,-26,112,-78c0,0,43,-52,64,-131c0,0,21,-78,21,-182c0,0,0,-212,-93,-316C692,89,599,-14,421,-14Z" 
id="f0_h"
transform="scale(0.001,-0.001)" />

<path d="M106,0V635c0,0,0,26,-1,54c0,0,0,28,-1,53c0,0,-1,25,-1,42c0,0,-1,18,-2,24H228c0,0,0,-4,1,-21c0,0,1,-16,2,-37c0,0,1,-22,2,-44c0,0,1,-22,1,-37h2c0,0,19,35,42,64c0,0,23,28,54,48c0,0,30,20,70,30c0,0,39,11,92,11c0,0,67,0,115,-16c0,0,48,-17,80,-51c0,0,31,-34,45,-88c0,0,15,-54,15,-129V0H615V512c0,0,0,59,-9,98c0,0,-8,40,-28,64c0,0,-19,25,-51,35c0,0,-31,10,-78,10c0,0,-48,0,-87,-17c0,0,-38,-17,-65,-49c0,0,-28,-31,-43,-78c0,0,-14,-47,-14,-107V0Z" 
id="f0_i"
transform="scale(0.001,-0.001)" />

<path d="M424,96c0,0,53,0,96,22c0,0,42,22,72,72c0,0,29,50,45,133c0,0,16,83,16,204c0,0,0,125,-15,208c0,0,-15,83,-44,133c0,0,-29,49,-71,70c0,0,-42,20,-96,20c0,0,-56,0,-100,-21c0,0,-43,-21,-72,-70c0,0,-30,-50,-45,-133c0,0,-14,-83,-14,-207c0,0,0,-121,15,-204c0,0,15,-83,45,-133c0,0,29,-50,71,-72c0,0,43,-22,97,-22ZM423,-14c0,0,-77,0,-143,27c0,0,-67,28,-116,91c0,0,-48,63,-76,167c0,0,-28,103,-28,255c0,0,0,159,28,263c0,0,28,104,77,166c0,0,49,62,116,87c0,0,67,25,146,25c0,0,76,0,142,-25c0,0,66,-25,115,-87c0,0,49,-62,78,-166c0,0,28,-104,28,-263c0,0,0,-151,-29,-255c0,0,-28,-103,-78,-167c0,0,-50,-63,-117,-91c0,0,-67,-27,-143,-27Z" 
id="f0_j"
transform="scale(0.001,-0.001)" />

<path d="M140,0V163H286V0Z" 
id="f0_k"
transform="scale(0.001,-0.001)" />

<path d="M413,-14c0,0,-83,0,-144,19c0,0,-62,19,-104,53c0,0,-43,34,-68,80c0,0,-25,45,-35,97l136,16c0,0,8,-30,23,-58c0,0,15,-27,40,-49c0,0,26,-22,64,-35c0,0,37,-13,91,-13c0,0,52,0,95,16c0,0,42,16,72,47c0,0,31,31,47,77c0,0,16,45,16,104c0,0,0,48,-15,88c0,0,-16,41,-45,70c0,0,-29,30,-71,46c0,0,-42,16,-96,16c0,0,-33,0,-62,-6c0,0,-28,-6,-52,-16c0,0,-25,-11,-44,-24c0,0,-20,-14,-37,-29H92l35,566H725V937H250L230,604c0,0,36,27,89,47c0,0,54,20,128,20c0,0,78,0,141,-24c0,0,62,-24,106,-68c0,0,44,-43,68,-104c0,0,24,-60,24,-132c0,0,0,-79,-24,-145c0,0,-24,-66,-71,-113C691,85,644,38,575,11c0,0,-70,-25,-162,-25Z" 
id="f0_l"
transform="scale(0.001,-0.001)" />

<path d="M17,0L304,415L30,808H179L380,493L581,808H731L457,417L747,0H597L380,331L162,0Z" 
id="f0_m"
transform="scale(0.001,-0.001)" />

<path d="M412,-14c0,0,-94,0,-161,31c0,0,-66,32,-108,89c0,0,-41,56,-60,133c0,0,-18,76,-18,166c0,0,0,81,13,143c0,0,13,62,38,109c0,0,24,47,57,78c0,0,33,32,71,51c0,0,38,19,81,28c0,0,42,8,86,8c0,0,68,0,120,-18c0,0,53,-19,92,-51c0,0,38,-33,62,-77c0,0,24,-44,34,-95L581,571c0,0,-11,67,-53,106c0,0,-43,40,-121,40c0,0,-57,0,-96,-19c0,0,-38,-19,-62,-58c0,0,-24,-38,-34,-96c0,0,-10,-59,-10,-137c0,0,0,-69,10,-127c0,0,10,-59,34,-101c0,0,24,-42,63,-65c0,0,39,-23,97,-23c0,0,71,0,119,39c0,0,48,39,60,119l136,-9c0,0,-7,-50,-30,-96c0,0,-22,-46,-60,-81C634,63,595,28,540,7c0,0,-55,-21,-128,-21Z" 
id="f0_n"
transform="scale(0.001,-0.001)" />

<path d="M426,86c0,0,61,0,103,16c0,0,42,15,67,44c0,0,26,29,37,69c0,0,10,41,10,91c0,0,0,38,-10,73c0,0,-11,36,-36,63c0,0,-25,27,-68,44c0,0,-43,17,-107,17c0,0,-59,0,-101,-17c0,0,-41,-17,-67,-45c0,0,-26,-27,-38,-63c0,0,-12,-36,-12,-75c0,0,0,-49,12,-88c0,0,12,-40,38,-69c0,0,27,-29,69,-44c0,0,43,-16,103,-16Zm-2,517c0,0,63,0,101,17c0,0,38,18,59,44c0,0,20,27,27,60c0,0,6,33,6,64c0,0,0,39,-10,72c0,0,-10,33,-33,57c0,0,-23,23,-60,36c0,0,-38,13,-92,13c0,0,-53,0,-89,-13c0,0,-37,-13,-60,-36c0,0,-23,-24,-34,-57c0,0,-10,-33,-10,-72c0,0,0,-31,8,-64c0,0,8,-33,30,-60c0,0,21,-26,59,-44c0,0,38,-17,98,-17Zm1,-617c0,0,-92,0,-160,22c0,0,-67,24,-112,64c0,0,-44,41,-65,97c0,0,-22,56,-22,123c0,0,0,57,18,102c0,0,18,45,47,77c0,0,29,32,67,52c0,0,38,20,78,27v3c0,0,-44,10,-79,33c0,0,-34,23,-58,56c0,0,-23,32,-36,72c0,0,-12,39,-12,83c0,0,0,56,21,104c0,0,21,49,63,86c0,0,42,37,104,58c0,0,62,22,143,22c0,0,86,0,149,-22c0,0,63,-22,104,-58c0,0,42,-37,62,-87c0,0,20,-49,20,-104c0,0,0,-43,-13,-83c0,0,-12,-40,-35,-72c0,0,-24,-32,-58,-55c0,0,-35,-23,-81,-32v-3c0,0,46,-7,85,-27c0,0,39,-20,67,-52c0,0,28,-33,45,-77c0,0,16,-45,16,-102c0,0,0,-67,-21,-123c0,0,-21,-56,-65,-97C697,73,653,32,586,8c0,0,-68,-22,-161,-22Z" 
id="f0_o"
transform="scale(0.001,-0.001)" />


</defs>

<!-- Any embedded fonts defined here -->
<style type="text/css" ><![CDATA[

@font-face {
	font-family: LiberationSans_8;
	src: url("fonts/LiberationSans_8.woff") format("woff");
}

]]></style>

</svg>
