<?xml version="1.0" encoding="UTF-8" standalone="no"?>
<!DOCTYPE svg PUBLIC "-//W3C//DTD SVG 1.1//EN"
 "http://www.w3.org/Graphics/SVG/1.1/DTD/svg11.dtd">
<!-- Generated by graphviz version 2.38.0 (20140413.2041)
 -->
<!-- Title: %3 Pages: 1 -->
<svg width="307pt" height="446pt"
 viewBox="0.00 0.00 307.00 446.15" xmlns="http://www.w3.org/2000/svg" xmlns:xlink="http://www.w3.org/1999/xlink">
<g id="graph0" class="graph" transform="scale(1 1) rotate(0) translate(4 442.145)">
<title>%3</title>
<polygon fill="white" stroke="none" points="-4,4 -4,-442.145 303,-442.145 303,4 -4,4"/>
<!-- &#45;2 -->
<g id="node1" class="node"><title>&#45;2</title>
<polygon fill="#b4eeb4" stroke="black" stroke-width="2" points="36,-327.145 0,-327.145 0,-291.145 36,-291.145 36,-327.145"/>
<text text-anchor="middle" x="18" y="-304.145" font-family="times" font-size="20.00">&#45;2</text>
</g>
<!-- 0 -->
<g id="node3" class="node"><title>0</title>
<polygon fill="lightblue" stroke="black" stroke-width="2" points="221,-201.145 185,-201.145 185,-165.145 221,-165.145 221,-201.145"/>
<text text-anchor="middle" x="203" y="-178.145" font-family="times" font-size="20.00">0</text>
</g>
<!-- &#45;2&#45;&gt;0 -->
<g id="edge2" class="edge"><title>&#45;2&#45;&gt;0</title>
<path fill="none" stroke="black" d="M19.6941,-291.121C21.6304,-267.73 28.6938,-227.404 54,-206.145 87.8078,-177.744 141.881,-176.901 174.462,-179.552"/>
<polygon fill="gray" stroke="black" points="174.332,-183.056 184.626,-180.551 175.016,-176.09 174.332,-183.056"/>
<text text-anchor="middle" x="110.5" y="-212.145" font-family="times" font-size="20.00">sep_conv_3x3</text>
</g>
<!-- 1 -->
<g id="node4" class="node"><title>1</title>
<polygon fill="lightblue" stroke="black" stroke-width="2" points="221,-309.145 185,-309.145 185,-273.145 221,-273.145 221,-309.145"/>
<text text-anchor="middle" x="203" y="-286.145" font-family="times" font-size="20.00">1</text>
</g>
<!-- &#45;2&#45;&gt;1 -->
<g id="edge3" class="edge"><title>&#45;2&#45;&gt;1</title>
<path fill="none" stroke="black" d="M36.3111,-296.254C41.7033,-292.948 47.8538,-289.848 54,-288.145 94.8078,-276.842 144.394,-281.331 174.555,-285.967"/>
<polygon fill="gray" stroke="black" points="174.298,-289.472 184.736,-287.652 175.442,-282.566 174.298,-289.472"/>
<text text-anchor="middle" x="110.5" y="-294.145" font-family="times" font-size="20.00">sep_conv_5x5</text>
</g>
<!-- &#45;2&#45;&gt;1 -->
<g id="edge4" class="edge"><title>&#45;2&#45;&gt;1</title>
<path fill="none" stroke="black" d="M36.2058,-312.033C64.1532,-316.112 120.926,-321.844 167,-310.145 169.986,-309.387 172.993,-308.317 175.924,-307.067"/>
<polygon fill="gray" stroke="black" points="177.495,-310.194 184.902,-302.62 174.388,-303.922 177.495,-310.194"/>
<text text-anchor="middle" x="110.5" y="-322.145" font-family="times" font-size="20.00">sep_conv_3x3</text>
</g>
<!-- 2 -->
<g id="node5" class="node"><title>2</title>
<polygon fill="lightblue" stroke="black" stroke-width="2" points="221,-255.145 185,-255.145 185,-219.145 221,-219.145 221,-255.145"/>
<text text-anchor="middle" x="203" y="-232.145" font-family="times" font-size="20.00">2</text>
</g>
<!-- &#45;2&#45;&gt;2 -->
<g id="edge6" class="edge"><title>&#45;2&#45;&gt;2</title>
<path fill="none" stroke="black" d="M25.6537,-290.946C31.2288,-278.436 40.4725,-262.611 54,-254.145 90.8694,-231.07 143.167,-230.976 174.712,-233.627"/>
<polygon fill="gray" stroke="black" points="174.647,-237.138 184.945,-234.646 175.341,-230.172 174.647,-237.138"/>
<text text-anchor="middle" x="110.5" y="-260.145" font-family="times" font-size="20.00">skip_connect</text>
</g>
<!-- 3 -->
<g id="node6" class="node"><title>3</title>
<polygon fill="lightblue" stroke="black" stroke-width="2" points="221,-395.145 185,-395.145 185,-359.145 221,-359.145 221,-395.145"/>
<text text-anchor="middle" x="203" y="-372.145" font-family="times" font-size="20.00">3</text>
</g>
<!-- &#45;2&#45;&gt;3 -->
<g id="edge7" class="edge"><title>&#45;2&#45;&gt;3</title>
<path fill="none" stroke="black" d="M20.1222,-327.16C22.5393,-348.661 30.1404,-383.758 54,-400.145 95.3988,-428.578 118.885,-414.54 167,-400.145 170.037,-399.237 173.054,-397.971 175.971,-396.495"/>
<polygon fill="gray" stroke="black" points="178.017,-399.352 184.844,-391.25 174.455,-393.326 178.017,-399.352"/>
<text text-anchor="middle" x="110.5" y="-422.145" font-family="times" font-size="20.00">avg_pool_3x3</text>
</g>
<!-- &#45;2&#45;&gt;3 -->
<g id="edge8" class="edge"><title>&#45;2&#45;&gt;3</title>
<path fill="none" stroke="black" d="M34.6542,-327.248C40.2551,-332.752 46.9416,-338.343 54,-342.145 92.6759,-362.979 143.595,-371.516 174.506,-374.94"/>
<polygon fill="gray" stroke="black" points="174.253,-378.432 184.553,-375.95 174.953,-371.467 174.253,-378.432"/>
<text text-anchor="middle" x="110.5" y="-379.145" font-family="times" font-size="20.00">avg_pool_3x3</text>
</g>
<!-- &#45;1 -->
<g id="node2" class="node"><title>&#45;1</title>
<polygon fill="#b4eeb4" stroke="black" stroke-width="2" points="36,-102.145 0,-102.145 0,-66.1452 36,-66.1452 36,-102.145"/>
<text text-anchor="middle" x="18" y="-79.1452" font-family="times" font-size="20.00">&#45;1</text>
</g>
<!-- &#45;1&#45;&gt;0 -->
<g id="edge1" class="edge"><title>&#45;1&#45;&gt;0</title>
<path fill="none" stroke="black" d="M36.2257,-84.9466C70.7076,-86.8644 146.653,-92.7587 167,-108.145 181.948,-119.449 190.75,-138.703 195.788,-154.872"/>
<polygon fill="gray" stroke="black" points="192.535,-156.238 198.582,-164.937 199.279,-154.365 192.535,-156.238"/>
<text text-anchor="middle" x="110.5" y="-114.145" font-family="times" font-size="20.00">sep_conv_5x5</text>
</g>
<!-- &#45;1&#45;&gt;2 -->
<g id="edge5" class="edge"><title>&#45;1&#45;&gt;2</title>
<path fill="none" stroke="black" d="M28.6035,-102.519C34.6162,-112.22 43.2627,-123.468 54,-130.145 97.4494,-157.164 128.91,-117.983 167,-152.145 185.131,-168.406 176.008,-182.583 185.749,-209.652"/>
<polygon fill="gray" stroke="black" points="182.538,-211.044 189.633,-218.912 188.993,-208.337 182.538,-211.044"/>
<text text-anchor="middle" x="110.5" y="-158.145" font-family="times" font-size="20.00">avg_pool_3x3</text>
</g>
<!-- 4 -->
<g id="node7" class="node"><title>4</title>
<polygon fill="lightblue" stroke="black" stroke-width="2" points="221,-80.1452 185,-80.1452 185,-44.1452 221,-44.1452 221,-80.1452"/>
<text text-anchor="middle" x="203" y="-57.1452" font-family="times" font-size="20.00">4</text>
</g>
<!-- &#45;1&#45;&gt;4 -->
<g id="edge9" class="edge"><title>&#45;1&#45;&gt;4</title>
<path fill="none" stroke="black" d="M23.0902,-65.9653C27.6958,-50.2341 36.885,-28.4417 54,-18.1452 97.0347,7.74481 121.765,3.67339 167,-18.1452 174.789,-21.902 181.378,-28.3282 186.666,-35.1263"/>
<polygon fill="gray" stroke="black" points="184.083,-37.5429 192.66,-43.7631 189.834,-33.552 184.083,-37.5429"/>
<text text-anchor="middle" x="110.5" y="-24.1452" font-family="times" font-size="20.00">sep_conv_3x3</text>
</g>
<!-- &#45;1&#45;&gt;4 -->
<g id="edge10" class="edge"><title>&#45;1&#45;&gt;4</title>
<path fill="none" stroke="black" d="M36.3184,-71.2803C41.7108,-67.9754 47.8596,-64.8683 54,-63.1452 94.762,-51.7063 144.362,-54.5777 174.537,-58.0771"/>
<polygon fill="gray" stroke="black" points="174.363,-61.5829 184.724,-59.3695 175.244,-54.6386 174.363,-61.5829"/>
<text text-anchor="middle" x="110.5" y="-69.1452" font-family="times" font-size="20.00">skip_connect</text>
</g>
<!-- out -->
<g id="node8" class="node"><title>out</title>
<polygon fill="palegoldenrod" stroke="black" stroke-width="2" points="299,-255.145 258,-255.145 258,-219.145 299,-219.145 299,-255.145"/>
<text text-anchor="middle" x="278.5" y="-232.145" font-family="times" font-size="20.00">out</text>
</g>
<!-- 0&#45;&gt;out -->
<g id="edge11" class="edge"><title>0&#45;&gt;out</title>
<path fill="none" stroke="black" d="M221.047,-195.67C229.575,-201.935 240.113,-209.677 249.766,-216.769"/>
<polygon fill="gray" stroke="black" points="247.817,-219.68 257.948,-222.781 251.962,-214.039 247.817,-219.68"/>
</g>
<!-- 1&#45;&gt;out -->
<g id="edge12" class="edge"><title>1&#45;&gt;out</title>
<path fill="none" stroke="black" d="M221.047,-278.621C229.575,-272.355 240.113,-264.613 249.766,-257.521"/>
<polygon fill="gray" stroke="black" points="251.962,-260.251 257.948,-251.51 247.817,-254.61 251.962,-260.251"/>
</g>
<!-- 2&#45;&gt;out -->
<g id="edge13" class="edge"><title>2&#45;&gt;out</title>
<path fill="none" stroke="black" d="M221.047,-237.145C228.972,-237.145 238.632,-237.145 247.706,-237.145"/>
<polygon fill="gray" stroke="black" points="247.948,-240.645 257.948,-237.145 247.948,-233.645 247.948,-240.645"/>
</g>
<!-- 3&#45;&gt;out -->
<g id="edge14" class="edge"><title>3&#45;&gt;out</title>
<path fill="none" stroke="black" d="M213.458,-359.129C226.068,-335.11 248.499,-292.384 263.186,-264.41"/>
<polygon fill="gray" stroke="black" points="266.295,-266.017 267.845,-255.537 260.097,-262.764 266.295,-266.017"/>
</g>
<!-- 4&#45;&gt;out -->
<g id="edge15" class="edge"><title>4&#45;&gt;out</title>
<path fill="none" stroke="black" d="M211.589,-80.2141C224.463,-110.866 250.662,-173.245 265.866,-209.445"/>
<polygon fill="gray" stroke="black" points="262.743,-211.048 269.842,-218.912 269.197,-208.337 262.743,-211.048"/>
</g>
</g>
</svg>
