<?xml version="1.0" encoding="UTF-8" standalone="no"?>
<!DOCTYPE svg PUBLIC "-//W3C//DTD SVG 1.1//EN"
 "http://www.w3.org/Graphics/SVG/1.1/DTD/svg11.dtd">
<!-- Generated by graphviz version 2.38.0 (20140413.2041)
 -->
<!-- Title: %3 Pages: 1 -->
<svg width="579pt" height="280pt"
 viewBox="0.00 0.00 579.00 279.67" xmlns="http://www.w3.org/2000/svg" xmlns:xlink="http://www.w3.org/1999/xlink">
<g id="graph0" class="graph" transform="scale(1 1) rotate(0) translate(4 275.669)">
<title>%3</title>
<polygon fill="white" stroke="none" points="-4,4 -4,-275.669 575,-275.669 575,4 -4,4"/>
<!-- &#45;2 -->
<g id="node1" class="node"><title>&#45;2</title>
<polygon fill="#b4eeb4" stroke="black" stroke-width="2" points="36,-232.669 0,-232.669 0,-196.669 36,-196.669 36,-232.669"/>
<text text-anchor="middle" x="18" y="-209.669" font-family="times" font-size="20.00">&#45;2</text>
</g>
<!-- 0 -->
<g id="node3" class="node"><title>0</title>
<polygon fill="lightblue" stroke="black" stroke-width="2" points="267,-82.669 231,-82.669 231,-46.669 267,-46.669 267,-82.669"/>
<text text-anchor="middle" x="249" y="-59.669" font-family="times" font-size="20.00">0</text>
</g>
<!-- &#45;2&#45;&gt;0 -->
<g id="edge2" class="edge"><title>&#45;2&#45;&gt;0</title>
<path fill="none" stroke="black" d="M20.5081,-196.518C23.3094,-175.15 31.2929,-140.229 54,-121.669 95.1288,-88.0513 121.805,-120.052 172,-102.669 180.648,-99.6743 181.876,-96.8823 190,-92.669 200.305,-87.3246 211.791,-81.7099 221.805,-76.9231"/>
<polygon fill="gray" stroke="black" points="223.334,-80.0717 230.869,-72.6232 220.334,-73.7473 223.334,-80.0717"/>
<text text-anchor="middle" x="113" y="-127.669" font-family="times" font-size="20.00">sep_conv_7x7</text>
</g>
<!-- 1 -->
<g id="node4" class="node"><title>1</title>
<polygon fill="lightblue" stroke="black" stroke-width="2" points="267,-137.669 231,-137.669 231,-101.669 267,-101.669 267,-137.669"/>
<text text-anchor="middle" x="249" y="-114.669" font-family="times" font-size="20.00">1</text>
</g>
<!-- &#45;2&#45;&gt;1 -->
<g id="edge4" class="edge"><title>&#45;2&#45;&gt;1</title>
<path fill="none" stroke="black" d="M36.2514,-213.168C74.0161,-209.744 161.485,-201.005 172,-192.669 189.204,-179.031 174.97,-162.672 190,-146.669 198.441,-137.681 210.469,-131.411 221.385,-127.192"/>
<polygon fill="gray" stroke="black" points="222.658,-130.455 230.962,-123.874 220.367,-123.84 222.658,-130.455"/>
<text text-anchor="middle" x="113" y="-216.669" font-family="times" font-size="20.00">sep_conv_7x7</text>
</g>
<!-- 2 -->
<g id="node5" class="node"><title>2</title>
<polygon fill="lightblue" stroke="black" stroke-width="2" points="267,-191.669 231,-191.669 231,-155.669 267,-155.669 267,-191.669"/>
<text text-anchor="middle" x="249" y="-168.669" font-family="times" font-size="20.00">2</text>
</g>
<!-- &#45;2&#45;&gt;2 -->
<g id="edge6" class="edge"><title>&#45;2&#45;&gt;2</title>
<path fill="none" stroke="black" d="M36.1558,-228.774C41.5436,-232.394 47.7307,-235.793 54,-237.669 104.244,-252.7 122.734,-255.649 172,-237.669 193.055,-229.985 212.316,-213.613 226.18,-199.352"/>
<polygon fill="gray" stroke="black" points="229.042,-201.415 233.304,-191.716 223.923,-196.641 229.042,-201.415"/>
<text text-anchor="middle" x="113" y="-255.669" font-family="times" font-size="20.00">sep_conv_5x5</text>
</g>
<!-- &#45;1 -->
<g id="node2" class="node"><title>&#45;1</title>
<polygon fill="#b4eeb4" stroke="black" stroke-width="2" points="36,-74.669 0,-74.669 0,-38.669 36,-38.669 36,-74.669"/>
<text text-anchor="middle" x="18" y="-51.669" font-family="times" font-size="20.00">&#45;1</text>
</g>
<!-- &#45;1&#45;&gt;0 -->
<g id="edge1" class="edge"><title>&#45;1&#45;&gt;0</title>
<path fill="none" stroke="black" d="M36.3111,-43.778C41.7033,-40.4724 47.8538,-37.3714 54,-35.669 104.541,-21.6699 120.424,-26.1632 172,-35.669 189.039,-38.8095 207.202,-45.6006 221.498,-51.8218"/>
<polygon fill="gray" stroke="black" points="220.162,-55.0587 230.716,-55.9859 223.044,-48.6794 220.162,-55.0587"/>
<text text-anchor="middle" x="113" y="-41.669" font-family="times" font-size="20.00">sep_conv_5x5</text>
</g>
<!-- &#45;1&#45;&gt;1 -->
<g id="edge3" class="edge"><title>&#45;1&#45;&gt;1</title>
<path fill="none" stroke="black" d="M36.0676,-57.181C64.9204,-58.5165 124.805,-63.3306 172,-80.669 180.8,-83.9021 181.768,-87.1811 190,-91.669 200.192,-97.2259 211.657,-102.881 221.685,-107.64"/>
<polygon fill="gray" stroke="black" points="220.232,-110.824 230.772,-111.897 223.201,-104.485 220.232,-110.824"/>
<text text-anchor="middle" x="113" y="-86.669" font-family="times" font-size="20.00">max_pool_3x3</text>
</g>
<!-- &#45;1&#45;&gt;2 -->
<g id="edge5" class="edge"><title>&#45;1&#45;&gt;2</title>
<path fill="none" stroke="black" d="M20.6008,-74.9127C23.4876,-95.9606 31.5497,-129.94 54,-147.669 60.4734,-152.781 168.752,-165.098 220.663,-170.748"/>
<polygon fill="gray" stroke="black" points="220.51,-174.251 230.828,-171.847 221.262,-167.292 220.51,-174.251"/>
<text text-anchor="middle" x="113" y="-170.669" font-family="times" font-size="20.00">avg_pool_3x3</text>
</g>
<!-- 4 -->
<g id="node7" class="node"><title>4</title>
<polygon fill="lightblue" stroke="black" stroke-width="2" points="493,-52.669 457,-52.669 457,-16.669 493,-16.669 493,-52.669"/>
<text text-anchor="middle" x="475" y="-29.669" font-family="times" font-size="20.00">4</text>
</g>
<!-- &#45;1&#45;&gt;4 -->
<g id="edge10" class="edge"><title>&#45;1&#45;&gt;4</title>
<path fill="none" stroke="black" d="M33.6084,-38.5274C39.3141,-32.7371 46.332,-26.9779 54,-23.669 157.702,21.0798 195.154,-10.9396 308,-15.669 366.376,-18.1156 381.267,-17.6928 439,-26.669 441.533,-27.0628 444.155,-27.5366 446.773,-28.0544"/>
<polygon fill="gray" stroke="black" points="446.132,-31.4967 456.647,-30.1942 447.615,-24.6555 446.132,-31.4967"/>
<text text-anchor="middle" x="249" y="-21.669" font-family="times" font-size="20.00">max_pool_3x3</text>
</g>
<!-- 3 -->
<g id="node6" class="node"><title>3</title>
<polygon fill="lightblue" stroke="black" stroke-width="2" points="493,-124.669 457,-124.669 457,-88.669 493,-88.669 493,-124.669"/>
<text text-anchor="middle" x="475" y="-101.669" font-family="times" font-size="20.00">3</text>
</g>
<!-- 0&#45;&gt;3 -->
<g id="edge8" class="edge"><title>0&#45;&gt;3</title>
<path fill="none" stroke="black" d="M267.048,-63.5011C300.945,-61.7741 378.734,-60.8059 439,-82.669 442.117,-83.7997 445.219,-85.2745 448.216,-86.9374"/>
<polygon fill="gray" stroke="black" points="446.47,-89.9741 456.799,-92.3348 450.197,-84.0484 446.47,-89.9741"/>
<text text-anchor="middle" x="382.5" y="-88.669" font-family="times" font-size="20.00">avg_pool_3x3</text>
</g>
<!-- 0&#45;&gt;4 -->
<g id="edge9" class="edge"><title>0&#45;&gt;4</title>
<path fill="none" stroke="black" d="M267.291,-56.0216C282.366,-48.9874 305.042,-39.6051 326,-35.669 367.609,-27.8547 416.965,-29.685 446.86,-31.982"/>
<polygon fill="gray" stroke="black" points="446.684,-35.4795 456.943,-32.8324 447.273,-28.5043 446.684,-35.4795"/>
<text text-anchor="middle" x="382.5" y="-41.669" font-family="times" font-size="20.00">sep_conv_3x3</text>
</g>
<!-- 1&#45;&gt;3 -->
<g id="edge7" class="edge"><title>1&#45;&gt;3</title>
<path fill="none" stroke="black" d="M267.205,-118.671C305.887,-116.426 399.985,-110.965 446.725,-108.252"/>
<polygon fill="gray" stroke="black" points="446.956,-111.745 456.736,-107.671 446.55,-104.756 446.956,-111.745"/>
<text text-anchor="middle" x="382.5" y="-120.669" font-family="times" font-size="20.00">skip_connect</text>
</g>
<!-- out -->
<g id="node8" class="node"><title>out</title>
<polygon fill="palegoldenrod" stroke="black" stroke-width="2" points="571,-124.669 530,-124.669 530,-88.669 571,-88.669 571,-124.669"/>
<text text-anchor="middle" x="550.5" y="-101.669" font-family="times" font-size="20.00">out</text>
</g>
<!-- 2&#45;&gt;out -->
<g id="edge11" class="edge"><title>2&#45;&gt;out</title>
<path fill="none" stroke="black" d="M267.176,-172.514C307.457,-169.447 410.811,-159.496 493,-133.669 502.368,-130.725 512.16,-126.497 520.909,-122.258"/>
<polygon fill="gray" stroke="black" points="522.571,-125.34 529.925,-117.714 519.42,-119.089 522.571,-125.34"/>
</g>
<!-- 3&#45;&gt;out -->
<g id="edge12" class="edge"><title>3&#45;&gt;out</title>
<path fill="none" stroke="black" d="M493.047,-106.669C500.972,-106.669 510.632,-106.669 519.706,-106.669"/>
<polygon fill="gray" stroke="black" points="519.948,-110.169 529.948,-106.669 519.948,-103.169 519.948,-110.169"/>
</g>
<!-- 4&#45;&gt;out -->
<g id="edge13" class="edge"><title>4&#45;&gt;out</title>
<path fill="none" stroke="black" d="M493.047,-51.3683C502.193,-60.3271 513.649,-71.5499 523.848,-81.5402"/>
<polygon fill="gray" stroke="black" points="521.407,-84.0493 531,-88.5469 526.306,-79.0488 521.407,-84.0493"/>
</g>
</g>
</svg>
